<?xml version="1.0" encoding="UTF-8"?>
<svg version="1.1" xmlns="http://www.w3.org/2000/svg" width="500" height="500">
<path d="M0 0 C0.89589844 -0.01417969 1.79179687 -0.02835938 2.71484375 -0.04296875 C5.0625 0.1875 5.0625 0.1875 7.0625 2.1875 C6.876875 3.26 6.69125 4.3325 6.5 5.4375 C5.98893644 9.81804483 7.00091591 11.40792917 9.0625 15.1875 C8.7325 16.1775 8.4025 17.1675 8.0625 18.1875 C6.4125 18.5175 4.7625 18.8475 3.0625 19.1875 C2.7325 16.2175 2.4025 13.2475 2.0625 10.1875 C0.7425 10.1875 -0.5775 10.1875 -1.9375 10.1875 C-1.9375 12.1675 -1.9375 14.1475 -1.9375 16.1875 C-3.2575 16.5175 -4.5775 16.8475 -5.9375 17.1875 C-5.96434679 14.54159986 -5.98426357 11.89596904 -6 9.25 C-6.00837891 8.49525391 -6.01675781 7.74050781 -6.02539062 6.96289062 C-6.03402441 5.03755687 -5.98974333 3.11214419 -5.9375 1.1875 C-4.27188601 -0.47811399 -2.27787295 0.01634055 0 0 Z M-1.9375 3.1875 C-1.9375 4.5075 -1.9375 5.8275 -1.9375 7.1875 C-0.6175 6.5275 0.7025 5.8675 2.0625 5.1875 C2.0625 4.5275 2.0625 3.8675 2.0625 3.1875 C0.7425 3.1875 -0.5775 3.1875 -1.9375 3.1875 Z " fill="#5E5E5E" transform="translate(244.9375,201.8125)"/>
<path d="M0 0 C1.32 0 2.64 0 4 0 C4 2.31 4 4.62 4 7 C5.65 6.67 7.3 6.34 9 6 C9 4.02 9 2.04 9 0 C10.32 0 11.64 0 13 0 C13 5.61 13 11.22 13 17 C12.01 17 11.02 17 10 17 C8.64560332 14.29120665 8.93498549 11.99066732 9 9 C7.35 9 5.7 9 4 9 C4 11.31 4 13.62 4 16 C2.68 16.33 1.36 16.66 0 17 C0 11.39 0 5.78 0 0 Z " fill="#484848" transform="translate(268,202)"/>
<path d="M0 0 C0.99 0 1.98 0 3 0 C3.84761822 1.70129086 4.6774868 3.41143084 5.5 5.125 C5.9640625 6.07632813 6.428125 7.02765625 6.90625 8.0078125 C8.07748116 11.21196631 8.20076124 13.61717313 8 17 C7.01 17 6.02 17 5 17 C5 16.34 5 15.68 5 15 C4.34 14.67 3.68 14.34 3 14 C2.67 13.34 2.34 12.68 2 12 C1.01 12 0.02 12 -1 12 C-1.66 13.65 -2.32 15.3 -3 17 C-3.99 16.67 -4.98 16.34 -6 16 C-4.25192871 10.53262809 -2.34205919 5.24175152 0 0 Z M1 6 C0.67 6.99 0.34 7.98 0 9 C0.66 9 1.32 9 2 9 C1.67 8.01 1.34 7.02 1 6 Z " fill="#393939" transform="translate(228,202)"/>
<path d="M0 0 C0 0.66 0 1.32 0 2 C-1.32 2.33 -2.64 2.66 -4 3 C-4 3.99 -4 4.98 -4 6 C-1.05763218 8.21168225 -1.05763218 8.21168225 2 10 C1.67226629 13.03153686 1.35865103 14.61573103 -0.75 16.875 C-3 18 -3 18 -5.6875 17.8125 C-8 17 -8 17 -9 15 C-7.35 14.34 -5.7 13.68 -4 13 C-4 12.34 -4 11.68 -4 11 C-4.825 10.566875 -5.65 10.13375 -6.5 9.6875 C-9 8 -9 8 -9.5 5.5 C-9 3 -9 3 -7.875 1.1875 C-5.22464043 -0.49106106 -3.06753576 -0.20450238 0 0 Z " fill="#3F3F3F" transform="translate(219,202)"/>
<path d="M0 0 C-0.33 0.99 -0.66 1.98 -1 3 C-1.99 3 -2.98 3 -4 3 C-3.98839844 3.77085937 -3.97679687 4.54171875 -3.96484375 5.3359375 C-3.95130859 6.84027344 -3.95130859 6.84027344 -3.9375 8.375 C-3.92589844 9.37273437 -3.91429687 10.37046875 -3.90234375 11.3984375 C-4 14 -4 14 -5 16 C-6.32 15.67 -7.64 15.34 -9 15 C-8.67 11.04 -8.34 7.08 -8 3 C-9.65 2.67 -11.3 2.34 -13 2 C-9.15166533 -1.84833467 -5.03008029 -1.0528075 0 0 Z " fill="#4B4B4B" transform="translate(266,203)"/>
<path d="M0 0 C1.32 0 2.64 0 4 0 C4 5.61 4 11.22 4 17 C2.68 17 1.36 17 0 17 C0 11.39 0 5.78 0 0 Z " fill="#3E3E3E" transform="translate(285,202)"/>
<path d="M0 0 C2.97 0 5.94 0 9 0 C9 0.33 9 0.66 9 1 C7.35 1 5.7 1 4 1 C3.67 2.98 3.34 4.96 3 7 C3.99 7.33 4.98 7.66 6 8 C5.34 8 4.68 8 4 8 C4 10.31 4 12.62 4 15 C2.68 15.33 1.36 15.66 0 16 C0 10.72 0 5.44 0 0 Z " fill="#333333" transform="translate(239,203)"/>
<path d="M0 0 C1.32 0 2.64 0 4 0 C4 5.61 4 11.22 4 17 C3.01 17 2.02 17 1 17 C0.67 11.39 0.34 5.78 0 0 Z " fill="#272727" transform="translate(277,202)"/>
<path d="M0 0 C4 2 4 2 5.25 5.125 C5.4975 6.07375 5.745 7.0225 6 8 C3 10 3 10 0 10 C0 6.7 0 3.4 0 0 Z " fill="#090909" transform="translate(248,211)"/>
<path d="M0 0 C0.33 0.66 0.66 1.32 1 2 C2.65 2 4.3 2 6 2 C5.01 2.33 4.02 2.66 3 3 C1.78130071 5.50447516 1.78130071 5.50447516 1 8 C0.01 7.67 -0.98 7.34 -2 7 C-1.34 4.69 -0.68 2.38 0 0 Z " fill="#5E5E5E" transform="translate(224,211)"/>
<path d="M0 0 C1.32 0 2.64 0 4 0 C4 1.98 4 3.96 4 6 C3.01 6 2.02 6 1 6 C1 5.34 1 4.68 1 4 C0.34 3.67 -0.32 3.34 -1 3 C-0.67 2.01 -0.34 1.02 0 0 Z " fill="#373737" transform="translate(232,213)"/>
<path d="M0 0 C1.98 0 3.96 0 6 0 C6 0.66 6 1.32 6 2 C3.09399739 3.25664978 1.20395416 4 -2 4 C-1.34 2.68 -0.68 1.36 0 0 Z " fill="#272727" transform="translate(213,202)"/>
<path d="M0 0 C1.5625 1.8125 1.5625 1.8125 3 4 C2.67 4.99 2.34 5.98 2 7 C0.35 7.33 -1.3 7.66 -3 8 C-3 7.34 -3 6.68 -3 6 C-2.01 6 -1.02 6 0 6 C0 4.02 0 2.04 0 0 Z " fill="#E4E4E4" transform="translate(251,213)"/>
<path d="M0 0 C0.33 1.32 0.66 2.64 1 4 C1.66 4 2.32 4 3 4 C3 4.66 3 5.32 3 6 C1.35 6 -0.3 6 -2 6 C-1.125 1.125 -1.125 1.125 0 0 Z " fill="#141414" transform="translate(227,207)"/>
<path d="M0 0 C0.99 0.33 1.98 0.66 3 1 C3 1.66 3 2.32 3 3 C2.01 2.67 1.02 2.34 0 2 C0 1.34 0 0.68 0 0 Z " fill="#FFFFFF" transform="translate(281,200)"/>
</svg>
