<?xml version="1.0" standalone="no"?>
<!DOCTYPE svg PUBLIC "-//W3C//DTD SVG 20010904//EN"
 "http://www.w3.org/TR/2001/REC-SVG-20010904/DTD/svg10.dtd">
<svg version="1.0" xmlns="http://www.w3.org/2000/svg"
 width="512.000000pt" height="512.000000pt" viewBox="0 0 512.000000 512.000000"
 preserveAspectRatio="xMidYMid meet">

<g transform="translate(0.000000,512.000000) scale(0.100000,-0.100000)"
fill="#000000" stroke="none">
<path d="M1080 4784 c-131 -28 -179 -61 -366 -248 -130 -130 -183 -191 -222
-255 -207 -339 -226 -736 -52 -1086 55 -109 232 -368 426 -620 563 -735 1252
-1396 2008 -1930 286 -201 388 -253 580 -297 122 -28 335 -30 456 -4 254 54
416 150 645 380 156 156 192 212 225 342 35 134 20 259 -46 387 -33 63 -70
105 -293 328 -222 221 -266 260 -327 292 -223 115 -479 78 -658 -96 -94 -92
-170 -117 -250 -83 -79 33 -349 229 -521 377 -119 103 -347 332 -440 443 -137
163 -322 421 -351 492 -34 81 -12 146 84 249 118 126 168 260 159 425 -10 195
-56 267 -374 580 -203 201 -249 241 -310 273 -121 63 -242 80 -373 51z m215
-159 c33 -9 80 -29 105 -45 25 -16 154 -138 286 -272 284 -287 288 -293 289
-463 0 -88 -3 -107 -27 -157 -16 -34 -56 -89 -98 -133 -86 -91 -121 -161 -128
-255 -7 -102 15 -159 118 -313 311 -464 713 -862 1173 -1166 128 -84 191 -106
287 -99 93 7 169 44 251 124 44 41 92 76 136 97 63 29 76 32 168 32 159 0 172
-8 458 -293 131 -130 251 -257 267 -282 41 -65 63 -149 58 -229 -6 -108 -48
-180 -187 -323 -63 -66 -145 -142 -181 -169 -248 -187 -572 -244 -861 -153
-116 36 -182 71 -344 182 -446 304 -872 659 -1281 1067 -378 378 -667 717
-960 1125 -218 303 -276 408 -316 566 -31 126 -31 322 0 448 26 103 81 226
143 317 48 73 272 300 337 344 94 62 195 79 307 50z"/>
<path d="M2535 4705 c-30 -29 -33 -73 -6 -106 17 -21 28 -24 162 -30 366 -18
685 -124 991 -330 516 -347 861 -936 884 -1509 3 -74 7 -145 10 -158 12 -61
91 -83 134 -37 22 24 23 27 17 177 -25 659 -388 1279 -979 1674 -319 213 -729
343 -1086 344 -96 0 -105 -2 -127 -25z"/>
<path d="M2531 4044 c-28 -36 -27 -75 4 -104 22 -21 39 -24 140 -31 333 -23
631 -163 867 -408 221 -228 341 -500 368 -829 8 -97 13 -118 31 -138 43 -46
119 -21 133 44 11 45 -12 248 -40 360 -57 229 -164 434 -328 624 -265 309
-680 508 -1058 508 -92 0 -97 -1 -117 -26z"/>
<path d="M2555 3409 c-32 -18 -45 -40 -45 -74 0 -52 31 -70 142 -83 167 -20
298 -83 411 -197 112 -114 178 -258 193 -419 8 -94 29 -126 80 -126 49 0 84
37 84 88 0 65 -28 207 -55 279 -76 201 -247 383 -442 469 -118 53 -325 88
-368 63z"/>
</g>
</svg>
